# xmcd CD database file
#
# Track frame offsets:
#	150
#	10497
#	22826
#	35843
#	48498
#	59542
#	71302
#	82350
#	94100
#	106273
#	115982
#	125113
#	135031
#	145443
#	158004
#	171887
#	181455
#	195648
#	209611
#	221181
#	234624
#	246711
#
# Disc length: 3493 seconds
#
# Revision: 0
# Processed by: cddbd v1.5.1PL2 Copyright (c) Steve Scherf et al.
# Submitted via: CDex 1.51
#
DISCID=510da316
DTITLE=George Jones - The Spirit of Country - The Essential George Jones - Disc One
DYEAR=1998
DGENRE=Country
TTITLE0=Why, Baby, Why
TTITLE1=Just One More
TTITLE2=Color Of The Blues
TTITLE3=White Lightning
TTITLE4=Who Shot Sam
TTITLE5=The Window Up Above
TTITLE6=Tender Years
TTITLE7=She Thinks I Still Care
TTITLE8=We Must Have Been Out Of Our Minds - (with Melba Montgomery)
TTITLE9=The Race Is On
TTITLE10=Love Bug
TTITLE11=I'm A People
TTITLE12=Walk Through This World With Me
TTITLE13=If My Heart Had Windows
TTITLE14=A Good Year For The Roses
TTITLE15=We Can Make It
TTITLE16=The Ceremony (with Tammy Wynette)
TTITLE17=Loving You Could Never Be Better
TTITLE18=Picture Of Me, A (Without You)
TTITLE19=We're Gonna Hold On - (with Tammy Wynette)
TTITLE20=Once You've Had The Best
TTITLE21=The Grand Tour
EXTD=YEAR: 1998
EXTT0=
EXTT1=
EXTT2=
EXTT3=
EXTT4=
EXTT5=
EXTT6=
EXTT7=
EXTT8=
EXTT9=
EXTT10=
EXTT11=
EXTT12=
EXTT13=
EXTT14=
EXTT15=
EXTT16=
EXTT17=
EXTT18=
EXTT19=
EXTT20=
EXTT21=
PLAYORDER=
